<svg xmlns="http://www.w3.org/2000/svg" viewBox="0 0 64 64">
  <!-- sun -->
  <circle cx="26" cy="24" r="12" fill="#FFD93D"/>
  <!-- sun rays -->
  <g stroke="#FFD93D" stroke-width="3" stroke-linecap="round">
    <line x1="26" y1="4" x2="26" y2="9"/>
    <line x1="26" y1="39" x2="26" y2="44"/>
    <line x1="6" y1="24" x2="11" y2="24"/>
    <line x1="41" y1="24" x2="46" y2="24"/>
    <line x1="11.9" y1="9.9" x2="15.4" y2="13.4"/>
    <line x1="36.6" y1="34.6" x2="40.1" y2="38.1"/>
    <line x1="40.1" y1="9.9" x2="36.6" y2="13.4"/>
    <line x1="15.4" y1="34.6" x2="11.9" y2="38.1"/>
  </g>
  <!-- cloud -->
  <path d="M52 40c4.4 0 8 3.6 8 8s-3.6 8-8 8H20c-6.6 0-12-5.4-12-12s5.4-12 12-12c.7 0 1.4.1 2.1.2C24.6 27.3 29.8 24 36 24c8.8 0 16 7.2 16 16v0z" fill="#87CEEB"/>
</svg>
